<?xml version="1.0" encoding="UTF-8"?>
<svg width="609px" height="59px" viewBox="0 0 609 59" version="1.1" xmlns="http://www.w3.org/2000/svg" xmlns:xlink="http://www.w3.org/1999/xlink">
    <title>Group 14</title>
    <g id="page" stroke="none" stroke-width="1" fill="none" fill-rule="evenodd">
        <g id="Artboard" transform="translate(-268.000000, -4905.000000)">
            <g id="Group-11" transform="translate(0.000000, 3671.500000)">
                <g id="Group-14" transform="translate(270.000000, 1235.500000)">
                    <g id="Payment-Method-3" transform="translate(393.000000, 0.000000)">
                        <rect id="Rectangle" stroke="#D9D9D9" stroke-width="2.64589" fill="#FFFFFF" fill-rule="nonzero" x="0" y="0" width="81" height="55" rx="14.5524"></rect>
                        <path d="M38.2261321,36.6838115 L38.2261321,29.5205791 L41.9041089,29.5205791 C43.4112279,29.5205791 44.6834308,29.0128885 45.7202717,28.0113981 L45.9690065,27.7577769 C47.8634921,25.6849383 47.7391247,22.455793 45.7202717,20.5380398 C44.711068,19.522793 43.3283163,18.9728471 41.9041089,19.0010322 L36,19.0010322 L36,36.6838115 L38.2261321,36.6838115 Z M38.2265779,27.3491151 L38.2265779,21.1726755 L41.9602748,21.1726755 C42.7621994,21.1726755 43.523114,21.482891 44.0901225,22.0469519 C45.2932323,23.2314439 45.3208695,25.2055673 44.1592155,26.4323145 C43.592207,27.0385858 42.7898366,27.377345 41.9602748,27.3491151 L38.2265779,27.3491151 Z M56.3530168,25.529853 C55.3990875,24.6414616 54.0992474,24.1902308 52.4539424,24.1902308 C50.3383591,24.1902308 48.7483284,24.9799071 47.6976689,26.5452342 L49.6608018,27.7998977 C50.3798149,26.7285047 51.3613813,26.1925842 52.605947,26.1925842 C53.394053,26.1925842 54.1545219,26.4887744 54.7491675,27.0246949 C55.3299945,27.5323855 55.6616409,28.2654675 55.6616409,29.0411184 L55.6616409,29.5626999 C54.8044419,29.0832392 53.7261452,28.829618 52.398668,28.829618 C50.8500931,28.829618 49.6055274,29.196159 48.6792354,29.9435799 C47.7529433,30.6910009 47.2826651,31.6777041 47.2826651,32.9328157 C47.2550279,34.0750076 47.7391247,35.1607396 48.5963238,35.8942697 C49.4673414,36.6838115 50.5732753,37.0785824 51.8731153,37.0785824 C53.4078716,37.0785824 54.6248001,36.3876213 55.5510921,35.0056991 L55.6478223,35.0056991 L55.6478223,36.6838115 L57.7772242,36.6838115 L57.7772242,29.2243889 C57.7772242,27.6591962 57.306946,26.4184236 56.3530168,25.529853 Z M50.3111676,34.4558876 C49.854708,34.1175765 49.578336,33.567317 49.578336,32.9753847 C49.578336,32.3126535 49.8823452,31.7623939 50.4769908,31.3255022 C51.0854551,30.8881623 51.8459239,30.662771 52.7450245,30.662771 C53.9895902,30.648432 54.9577838,30.9307313 55.6491596,31.4944336 C55.6491596,32.453355 55.2756116,33.2854658 54.54278,33.9903178 C53.8790414,34.667388 52.9799407,35.0478199 52.0398301,35.0478199 C51.4175473,35.0621589 50.809083,34.8506585 50.3111676,34.4558876 Z M62.5611349,42 L70,24.5850465 L67.5804075,24.5850465 L64.1373469,33.2711268 L64.0958911,33.2711268 L60.5703647,24.5850465 L58.1503265,24.5850465 L63.0314131,35.9081606 L60.2659097,42 L62.5611349,42 Z" id="Shape" fill="#3C4043"></path>
                        <path d="M30,27.9438809 C30,27.2914923 29.9475131,26.6391038 29.8433789,26 L21,26 L21,29.6878144 L26.0664182,29.6878144 C25.8581499,30.8728599 25.1808164,31.938174 24.1909545,32.603678 L24.1909545,35 L27.2127331,35 C28.9838527,33.3360285 30,30.8728599 30,27.9438809 Z" id="Path" fill="#4285F4" fill-rule="nonzero"></path>
                        <path d="M20.6115341,37 C23.2097264,37 25.4063269,36.1202839 27,34.6085176 L23.8927477,32.1340431 C23.0222075,32.7390117 21.9106087,33.0823369 20.6115341,33.0823369 C18.0936947,33.0823369 15.9642348,31.3368823 15.2008607,29 L12,29 L12,31.556593 C13.6339143,34.8968059 16.9687109,37 20.6115341,37 Z" id="Path" fill="#34A853" fill-rule="nonzero"></path>
                        <path d="M16,29.4224872 C15.5256879,28.1828727 15.5256879,26.8312501 16,25.5774243 L16,23 L12.2213525,23 C10.5928825,25.8280478 10.5928825,29.171908 12.2213525,32 L16,29.4224872 Z" id="Path" fill="#FBBC04" fill-rule="nonzero"></path>
                        <path d="M20.5732831,21.9111321 C21.9465834,21.8836628 23.2665817,22.4187905 24.2532705,23.3929908 L27,20.5664453 C25.2530699,18.8924761 22.9599232,17.9731708 20.5732831,18.0005965 C16.9466407,18.0005965 13.6266567,20.1136382 12,23.4478858 L15.186643,26 C15.9466264,23.6536874 18.0666275,21.9111321 20.5732831,21.9111321 Z" id="Path" fill="#EA4335" fill-rule="nonzero"></path>
                    </g>
                    <g id="Payment-Method">
                        <rect id="Rectangle" stroke="#D9D9D9" stroke-width="2.64589" fill="#FFFFFF" fill-rule="nonzero" x="0" y="0" width="81" height="55" rx="14.5524"></rect>
                        <path d="M24.2505715,36.8599374 L19.3176036,36.8599374 L15.6184712,22.8959938 C15.4428747,22.2536364 15.070095,21.6857987 14.5217187,21.4181281 C13.1531743,20.7455364 11.6451287,20.2102821 10,19.9403058 L10,19.4027023 L17.9466411,19.4027023 C19.0433935,19.4027023 19.8659798,20.2102821 20.0030629,21.1481953 L21.9224017,31.2207127 L26.8528636,19.4027023 L31.6490123,19.4027023 L24.2505715,36.8599374 Z M34.3906735,36.8599374 L29.7321355,36.8599374 L33.5680872,19.4027023 L38.2270649,19.4027023 L34.3906735,36.8599374 Z M44.2542353,24.2387845 C44.3914063,23.2985657 45.2139926,22.7609622 46.1737499,22.7609622 C47.6817516,22.625974 49.3242863,22.8959503 50.6955566,23.5661928 L51.5181429,19.8075798 C50.1468726,19.2699763 48.638871,19 47.2702386,19 C42.7488716,19 39.4585263,21.4180846 39.4585263,24.7740823 C39.4585263,27.327242 41.7891143,28.667553 43.4342869,29.4753938 C45.2139926,30.2806244 45.8994079,30.8183149 45.7622369,31.6235455 C45.7622369,32.831174 44.3914063,33.3688645 43.0227739,33.3688645 C41.3776013,33.3688645 39.7328683,32.9664667 38.2270649,32.2934835 L37.4044786,36.0547067 C39.0496512,36.7250797 40.8293569,36.994795 42.4745296,36.994795 C47.5445806,37.1274775 50.6955566,34.7117856 50.6955566,31.0858551 C50.6955566,26.5194012 44.2542353,26.2518611 44.2542353,24.2387845 Z M67,36.8599374 L63.3007796,19.4027023 L59.327657,19.4027023 C58.5050706,19.4027023 57.6824843,19.9403058 57.4081423,20.7455364 L50.5583856,36.8599374 L55.3540946,36.8599374 L56.3116537,34.3093878 L62.204291,34.3093878 L62.7525353,36.8599374 L67,36.8599374 Z M60.0130723,24.1037528 L61.3817047,30.6830222 L57.5453133,30.6830222 L60.0130723,24.1037528 Z" id="Shape" fill="#172B85"></path>
                    </g>
                    <g id="Payment-Method-6" transform="translate(262.000000, 0.000000)">
                        <rect id="Rectangle" stroke="#D9D9D9" stroke-width="2.64589" fill="#1F72CD" fill-rule="nonzero" x="0" y="0" width="81" height="55" rx="14.5524"></rect>
                        <path d="M13.6743671,19 L6,35.9778633 L15.187292,35.9778633 L16.3262594,33.2709895 L18.9296576,33.2709895 L20.068625,35.9778633 L30.1813335,35.9778633 L30.1813335,33.9120679 L31.0825694,35.9778633 L36.3132808,35.9778633 L37.2145167,33.8682372 L37.2145167,35.9778633 L58.2458646,35.9778633 L60.803426,33.3413841 L63.198012,35.9778633 L74,36 L66.3016294,27.5362599 L74,19 L63.3654161,19 L60.8760563,21.5879556 L58.5567577,19 L35.6773226,19 L33.7127612,23.3821781 L31.7016986,19 L22.5338042,19 L22.5338042,20.995755 L21.5138797,19 L13.6743671,19 Z M15.4520827,21.4109506 L19.9304059,21.4109506 L25.0208167,32.9238863 L25.0208167,21.4109506 L29.9266845,21.4109506 L33.8584647,29.665809 L37.4820088,21.4109506 L42.3632975,21.4109506 L42.3632975,33.5937423 L39.3929833,33.5937423 L39.3686256,24.0473855 L35.0387073,33.5937423 L32.3815006,33.5937423 L28.0272246,24.0473855 L28.0272246,33.5937423 L21.9168893,33.5937423 L20.7584801,30.8625182 L14.5000941,30.8625182 L13.3440764,33.5915287 L10.0702649,33.5915287 L15.4520827,21.4109506 Z M57.1581813,21.4109506 L45.0807341,21.4109506 L45.0807341,33.5866586 L56.9708482,33.5866586 L60.803426,29.5515837 L64.4973861,33.5866586 L68.3587503,33.5866586 L62.7462869,27.5340462 L68.3587503,21.4109506 L64.6647901,21.4109506 L60.8516986,25.3996271 L57.1581813,21.4109506 Z M17.6306379,23.4720974 L15.5687783,28.3376079 L19.6901502,28.3376079 L17.6306379,23.4720974 Z M48.0630058,26.1575872 L48.0630058,23.9335144 L48.0630058,23.9313893 L55.5988439,23.9313893 L58.8871371,27.4880019 L55.4531404,31.0644047 L48.0630058,31.0644047 L48.0630058,28.6364531 L54.6519925,28.6364531 L54.6519925,26.1575872 L48.0630058,26.1575872 Z" id="Shape" fill="#FFFFFF"></path>
                    </g>
                    <g id="Payment-Method-2" transform="translate(524.000000, 0.000000)">
                        <rect id="Rectangle" stroke="#D9D9D9" stroke-width="2.64589" fill="#FFFFFF" fill-rule="nonzero" x="0" y="0" width="81" height="55" rx="14.5524"></rect>
                        <path d="M34.3395552,43 L34.8741469,39.575211 L33.6836472,39.5470768 L28,39.5470768 L31.9501126,14.2763857 C31.9621109,14.1998426 32.0021053,14.1287924 32.0603194,14.0782847 C32.1185334,14.0277324 32.1927452,14 32.2709565,14 L41.8545011,14 C45.036277,14 47.2319691,14.6679433 48.3780305,15.986458 C48.9157329,16.6049653 49.2579071,17.2515176 49.4236616,17.9627787 C49.597415,18.7092299 49.6000813,19.6009523 49.4307718,20.6887213 L49.4183291,20.7678546 L49.4183291,21.4649592 L49.9560314,21.7722033 C50.4084124,22.0144706 50.7679175,22.2917048 51.0438788,22.6090415 C51.5033699,23.138055 51.8011059,23.8103301 51.9264217,24.6070211 C52.0566257,25.4265321 52.0135206,26.4021214 51.8011059,27.5060565 C51.555807,28.7761177 51.1594182,29.8827323 50.6239377,30.7874946 C50.1315623,31.621698 49.5040948,32.3134438 48.7593104,32.8493346 C48.048299,33.3588775 47.2035286,33.7451654 46.2481071,33.9930149 C45.3220147,34.2359521 44.2666072,34.3587604 43.1089918,34.3587604 L42.3633186,34.3587604 C41.8300601,34.3587604 41.3119106,34.5525743 40.9053009,34.9000102 C40.4978025,35.2545913 40.2280626,35.7391259 40.1454075,36.2687646 L40.088971,36.5773484 L39.144659,42.6132655 L39.1019983,42.834767 C39.0908888,42.9048794 39.0713359,42.9401589 39.0424511,42.9638274 C39.0171213,42.985263 38.980682,43 38.944687,43 L34.3395552,43 Z" id="Path" fill="#28356A"></path>
                        <path d="M50.3918215,21 C50.3631073,21.1828878 50.3299064,21.3697591 50.2931163,21.561809 C49.0171268,28.0513162 44.6512149,30.2931524 39.0757152,30.2931524 L36.2370425,30.2931524 C35.555079,30.2931524 34.9803454,30.7835679 34.8744616,31.4497009 L33.0089327,43.1683297 C32.939839,43.6060742 33.2803721,44 33.7258916,44 L38.7612045,44 C39.3570251,44 39.8635625,43.5711077 39.9577811,42.9886287 L40.0071337,42.7354539 L40.9551526,36.7761089 L41.0161704,36.4494603 C41.1085944,35.8647682 41.6164777,35.4354333 42.212747,35.4354333 L42.9655987,35.4354333 C47.8438805,35.4354333 51.6628757,33.4737713 52.7791422,27.7968136 C53.2448514,25.4252917 53.0039209,23.4450399 51.7701055,22.0523573 C51.3968203,21.6324944 50.9333543,21.2839364 50.3918215,21 Z" id="Path" fill="#298FC2"></path>
                        <path d="M49.709738,20.4365549 C49.5215116,20.382289 49.3267796,20.3332623 49.1277106,20.2889211 C48.9269068,20.2456873 48.721766,20.2073945 48.5101197,20.1738297 C47.7702249,20.0559271 46.9596368,20 46.0913664,20 L38.7600763,20 C38.5792228,20 38.4079107,20.0402096 38.2543804,20.112919 C37.9160932,20.2732462 37.66498,20.5888742 37.6042618,20.975295 L36.0446713,30.7163181 L36,31 C36.1023536,30.3589471 36.6579252,29.8869958 37.3171514,29.8869958 L40.0616145,29.8869958 C45.4507893,29.8869958 49.6711386,27.7287132 50.9045857,21.4845594 C50.9414503,21.2997828 50.9722431,21.1199046 51,20.9439025 C50.6881686,20.7805938 50.3503152,20.6409252 49.9860059,20.5219577 C49.8962297,20.492482 49.8034176,20.4641138 49.709738,20.4365549 Z" id="Path" fill="#22284F"></path>
                        <path d="M36.9521734,20.7477961 C37.0152075,20.352322 37.2758985,20.0292992 37.6270884,19.8663492 C37.7873751,19.7916747 37.9643208,19.7505231 38.1520723,19.7505231 L45.762538,19.7505231 C46.6643757,19.7505231 47.5058808,19.808022 48.2739962,19.9286434 C48.493715,19.9627766 48.7066802,20.0022281 48.9151429,20.0464748 C49.1218047,20.0915934 49.323964,20.1420303 49.5193697,20.197306 C49.6166222,20.2254669 49.7129744,20.2548049 49.8070752,20.2838377 C50.1848295,20.4055925 50.5360195,20.5496668 50.8601948,20.7156682 C51.2411008,18.3537655 50.8570431,16.7456262 49.5432326,15.2894515 C48.0947993,13.6861075 45.4811358,13 42.1362769,13 L32.4263258,13 C31.7428562,13 31.1602411,13.4828341 31.0544339,14.1402139 L27.0103469,39.0623184 C26.9306538,39.5553532 27.3214652,40 27.8329418,40 L33.8279338,40 L36.9521734,20.7477961 Z" id="Path" fill="#28356A"></path>
                    </g>
                    <g id="Payment-Method-5" transform="translate(131.000000, 0.000000)">
                        <rect id="Rectangle" stroke="#D9D9D9" stroke-width="2.64589" fill="#FFFFFF" fill-rule="nonzero" x="0" y="0" width="81" height="55" rx="14.5524"></rect>
                        <path d="M50.9261613,44 C59.8034962,44 67,36.8367852 67,27.9999343 C67,19.1634776 59.8034962,12 50.9261613,12 C46.9475412,12 43.3067789,13.4388189 40.4997552,15.8222063 C37.6931766,13.4388627 34.0524143,12 30.0737942,12 C21.1964592,12 14,19.1635214 14,27.9999343 C14,36.8367852 21.1964592,44 30.0737942,44 C34.0524143,44 37.6931766,42.5615753 40.5002003,40.1779251 C43.3067789,42.5615753 46.9475412,44 50.9261613,44 Z" id="Path" fill="#ED0006"></path>
                        <path d="M41,40.1779251 C44.3908486,37.2432584 46.5409192,32.8762991 46.5409192,27.9999343 C46.5409192,23.1237447 44.3908486,18.7569168 41,15.8222063 C43.7536451,13.4388189 47.3257408,12 51.229322,12 C59.939226,12 67,19.1634776 67,27.9999343 C67,36.8367852 59.939226,44 51.229322,44 C47.3257408,44 43.7536451,42.5611373 41,40.1779251 Z" id="Path" fill="#F9A000"></path>
                        <path d="M40.5,40 C43.8658075,36.9877026 46,32.5052243 46,27.4998651 C46,22.4946858 43.8658075,18.0123423 40.5,15 C37.1341925,18.0123423 35,22.4946858 35,27.4998651 C35,32.5052243 37.1341925,36.9877026 40.5,40 Z" id="Path" fill="#FF5E00"></path>
                    </g>
                </g>
            </g>
        </g>
    </g>
</svg>